<svg width="1533" height="500" viewBox="0 0 1533 500" fill="none" xmlns="http://www.w3.org/2000/svg">
<path d="M257.112 25.6624H368.333L347.292 32.2295L298.608 334.937C293.709 363.609 283.336 388.391 267.486 409.283C251.637 430.031 231.538 446.097 207.188 457.479C182.838 468.718 155.678 474.337 125.709 474.337C98.7651 474.337 75.1355 469.582 54.8198 460.073C34.6482 450.563 19.7356 436.155 10.082 416.848C0.572511 397.541 -1.80486 373.191 2.94988 343.798H95.4512C94.0104 355.757 94.7308 365.842 97.6125 374.055C100.638 382.268 105.753 388.536 112.957 392.858C120.161 397.18 129.167 399.342 139.973 399.342C151.644 399.342 162.018 396.82 171.095 391.777C180.172 386.734 187.664 379.314 193.572 369.517C199.623 359.719 203.874 347.76 206.323 333.64L257.112 25.6624Z" fill="#007BFF"/>
<path d="M521.12 25.6624C565.642 25.6624 602.599 34.7394 631.992 52.8938C661.529 71.0483 682.349 97.0558 694.452 130.915C706.555 164.631 708.716 204.902 700.936 251.729C693.443 296.971 678.53 335.801 656.197 368.22C633.864 400.494 605.264 425.277 570.396 442.567C535.528 459.713 495.617 468.285 450.663 468.285H303.355C316.277 385.241 391.822 302.466 500.916 258.047L522.374 324.671L594.332 184.361L454.002 112.383L475.211 178.237C409.44 205.014 355.866 245.731 320.854 292.044L365.078 25.6624H521.12Z" fill="#007BFF"/>
<path d="M1173.01 499.999L1207.68 293.134H1248.82L1244.61 318.404H1246.47C1248.95 314.356 1252.25 310.242 1256.36 306.063C1260.54 301.819 1265.73 298.293 1271.94 295.485C1278.14 292.612 1285.42 291.175 1293.78 291.175C1304.81 291.175 1314.45 294.048 1322.67 299.794C1330.9 305.475 1336.84 314.062 1340.5 325.555C1344.22 336.982 1344.65 351.315 1341.77 368.554C1339.03 385.335 1333.97 399.505 1326.59 411.063C1319.28 422.555 1310.5 431.273 1300.24 437.215C1290.06 443.092 1279.25 446.03 1267.82 446.03C1259.73 446.03 1253.07 444.692 1247.84 442.014C1242.68 439.337 1238.67 435.974 1235.79 431.926C1232.92 427.812 1230.9 423.665 1229.72 419.486H1228.15L1214.83 499.999H1173.01ZM1235.99 368.358C1234.55 377.304 1234.49 385.107 1235.79 391.767C1237.16 398.428 1239.91 403.619 1244.02 407.341C1248.14 410.998 1253.55 412.826 1260.28 412.826C1267.07 412.826 1273.11 410.965 1278.4 407.243C1283.69 403.456 1288.1 398.232 1291.62 391.571C1295.15 384.846 1297.66 377.108 1299.17 368.358C1300.54 359.673 1300.57 352.033 1299.26 345.438C1297.96 338.843 1295.28 333.684 1291.23 329.962C1287.18 326.24 1281.7 324.379 1274.78 324.379C1268.05 324.379 1262.01 326.175 1256.66 329.766C1251.37 333.358 1246.96 338.451 1243.43 345.046C1239.91 351.641 1237.43 359.412 1235.99 368.358Z" fill="#002042"/>
<path d="M1106.97 443.581L1132.04 293.133H1173.77L1148.69 443.581H1106.97ZM1157.22 273.544C1151.01 273.544 1145.89 271.487 1141.84 267.373C1137.85 263.194 1136.22 258.231 1136.94 252.485C1137.66 246.608 1140.47 241.645 1145.36 237.597C1150.26 233.483 1155.81 231.426 1162.01 231.426C1168.22 231.426 1173.28 233.483 1177.2 237.597C1181.11 241.645 1182.75 246.608 1182.09 252.485C1181.44 258.231 1178.67 263.194 1173.77 267.373C1168.94 271.487 1163.42 273.544 1157.22 273.544Z" fill="#002042"/>
<path d="M991.267 356.604L976.771 443.582H935.143L968.446 242.985H1008.9L996.361 319.678H998.026C1002.86 310.797 1009.49 303.843 1017.91 298.815C1026.33 293.722 1036.29 291.175 1047.78 291.175C1058.23 291.175 1066.95 293.461 1073.94 298.031C1080.99 302.537 1085.98 309.034 1088.92 317.523C1091.86 325.946 1092.35 336.035 1090.39 347.789L1074.33 443.582H1032.7L1047.39 355.233C1048.89 345.96 1047.69 338.745 1043.77 333.586C1039.91 328.428 1033.78 325.849 1025.35 325.849C1019.67 325.849 1014.45 327.057 1009.68 329.473C1004.91 331.889 1000.9 335.415 997.634 340.051C994.434 344.622 992.312 350.14 991.267 356.604Z" fill="#002042"/>
<path d="M887.223 301.263C887.549 293.1 885.166 286.799 880.073 282.359C875.045 277.919 867.437 275.698 857.251 275.698C850.329 275.698 844.322 276.678 839.228 278.637C834.135 280.53 830.054 283.175 826.985 286.571C823.981 289.901 822.12 293.753 821.402 298.128C820.684 301.72 820.912 304.854 822.088 307.531C823.328 310.209 825.255 312.527 827.866 314.486C830.544 316.379 833.711 318.044 837.367 319.481C841.024 320.852 844.909 322.028 849.023 323.007L866.262 327.317C874.685 329.276 882.26 331.888 888.986 335.153C895.777 338.417 901.458 342.433 906.029 347.2C910.665 351.967 913.93 357.583 915.823 364.047C917.717 370.512 917.978 377.923 916.607 386.281C914.517 398.557 909.653 409.201 902.013 418.212C894.373 427.158 884.35 434.112 871.943 439.075C859.536 443.972 845.171 446.421 828.846 446.421C812.652 446.421 798.972 443.94 787.806 438.977C776.64 434.014 768.51 426.668 763.417 416.939C758.389 407.144 756.887 395.031 758.911 380.6H799.951C799.233 387.326 800.213 392.942 802.89 397.447C805.632 401.888 809.714 405.25 815.133 407.536C820.553 409.756 826.92 410.866 834.233 410.866C841.481 410.866 847.913 409.821 853.529 407.732C859.21 405.642 863.813 402.736 867.339 399.014C870.865 395.292 873.02 391.015 873.804 386.183C874.587 381.678 873.902 377.89 871.747 374.821C869.592 371.752 866.131 369.14 861.365 366.986C856.663 364.765 850.819 362.806 843.832 361.109L822.871 355.624C806.677 351.51 794.434 345.078 786.141 336.328C777.848 327.578 774.877 315.792 777.228 300.969C779.317 288.823 784.378 278.212 792.409 269.136C800.506 259.994 810.693 252.909 822.969 247.881C835.31 242.788 848.795 240.241 863.421 240.241C878.309 240.241 890.879 242.821 901.131 247.979C911.383 253.072 918.86 260.19 923.561 269.332C928.263 278.474 929.699 289.117 927.871 301.263H887.223Z" fill="#002042"/>
<path d="M1440.12 204.669C1434.15 205.212 1428.45 203.719 1423.02 200.19C1417.59 196.39 1414.88 192.182 1414.88 187.568C1414.88 179.153 1422.89 163.002 1438.9 139.115C1456.55 112.786 1465.37 97.5848 1465.37 93.5132C1465.37 91.0702 1464.15 89.713 1461.7 89.4415C1453.83 89.9844 1441.62 97.8562 1425.06 113.057C1401.44 135.044 1379.32 164.903 1358.69 202.633C1358.15 203.176 1356.66 203.447 1354.21 203.447C1342.54 203.447 1337.25 201.819 1338.33 198.561C1341.32 190.69 1346.48 178.882 1353.81 163.138C1361.41 147.394 1371.18 127.579 1383.12 103.692C1391.26 87.6772 1399.54 79.6696 1407.96 79.6696C1410.67 79.6696 1412.44 80.3482 1413.25 81.7054C1413.79 82.5198 1408.09 94.1918 1396.15 116.721C1390.45 127.579 1385.97 136.265 1382.71 142.78C1379.46 149.023 1377.15 153.095 1375.79 154.995C1380.41 150.38 1385.84 144.68 1392.08 137.894C1398.59 131.108 1406.06 123.236 1414.47 114.279C1427.77 99.3492 1442.43 88.22 1458.45 80.8911C1462.25 79.2624 1466.59 78.4481 1471.48 78.4481C1482.61 78.4481 1488.17 82.5198 1488.17 90.663C1488.17 95.8204 1485.59 101.928 1480.43 108.985C1451.12 149.973 1436.46 177.525 1436.46 191.64C1436.46 194.625 1437.41 196.526 1439.31 197.34C1443.65 199.24 1454.38 194.761 1471.48 183.903C1491.56 170.874 1508.66 154.723 1522.78 135.451C1525.76 131.379 1528.48 129.344 1530.92 129.344C1531.74 129.344 1532.14 129.615 1532.14 130.158C1532.14 131.515 1530.92 134.094 1528.48 137.894C1516.54 156.624 1499.98 173.181 1478.81 187.568C1459.8 200.054 1446.91 205.755 1440.12 204.669Z" fill="#002042"/>
<path d="M1170.63 200.597L1203.94 0H1227.05L1214.91 74.0484H1216.87C1218.95 71.4365 1221.86 68.1062 1225.58 64.0577C1229.3 59.9439 1234.3 56.2872 1240.57 53.0876C1246.84 49.8227 1254.87 48.1902 1264.66 48.1902C1277.33 48.1902 1287.94 51.3572 1296.5 57.6911C1305.12 64.0251 1311.16 73.0036 1314.62 84.6267C1318.14 96.2499 1318.6 109.963 1315.99 125.765C1313.38 141.698 1308.38 155.508 1301 167.197C1293.69 178.82 1284.68 187.831 1273.97 194.23C1263.33 200.564 1251.73 203.731 1239.2 203.731C1229.53 203.731 1222.06 202.131 1216.77 198.932C1211.54 195.667 1207.69 191.977 1205.21 187.864C1202.79 183.684 1200.93 180.224 1199.63 177.481H1196.88L1192.97 200.597H1170.63ZM1205.9 125.373C1204.07 136.735 1204.1 146.758 1205.99 155.443C1207.89 164.062 1211.64 170.821 1217.26 175.718C1222.87 180.55 1230.32 182.966 1239.59 182.966C1249.25 182.966 1257.74 180.42 1265.06 175.326C1272.37 170.168 1278.38 163.246 1283.08 154.561C1287.78 145.811 1291.04 136.082 1292.87 125.373C1294.57 114.795 1294.51 105.261 1292.68 96.7722C1290.91 88.2182 1287.19 81.4598 1281.51 76.4971C1275.9 71.4691 1268.19 68.9551 1258.4 68.9551C1248.99 68.9551 1240.67 71.3385 1233.42 76.1053C1226.24 80.8068 1220.29 87.4019 1215.59 95.8907C1210.96 104.314 1207.72 114.142 1205.9 125.373Z" fill="#002042"/>
<path d="M1069.11 203.731C1054.68 203.731 1042.76 200.532 1033.36 194.132C1023.96 187.668 1017.4 178.657 1013.67 167.099C1009.95 155.476 1009.36 141.959 1011.91 126.549C1014.46 111.138 1019.52 97.5561 1027.09 85.8024C1034.67 73.9834 1044.1 64.7763 1055.4 58.1812C1066.7 51.5208 1079.1 48.1906 1092.62 48.1906C1100.45 48.1906 1108 49.4965 1115.24 52.1084C1122.49 54.7204 1128.76 58.9648 1134.05 64.8416C1139.34 70.6532 1143.03 78.3584 1145.12 87.9573C1147.21 97.5561 1147.08 109.375 1144.73 123.414L1143.16 133.209H1027.19L1030.32 113.228H1122.79C1124.29 104.739 1123.9 97.1643 1121.61 90.5039C1119.39 83.8435 1115.51 78.5869 1109.96 74.7343C1104.47 70.8817 1097.52 68.9554 1089.09 68.9554C1080.41 68.9554 1072.31 71.3062 1064.8 76.0077C1057.29 80.6438 1051.02 86.5207 1046 93.6382C1040.97 100.69 1037.83 107.873 1036.59 115.187L1033.85 132.425C1031.89 144.897 1032.19 154.823 1034.73 162.202C1037.34 169.58 1041.88 174.902 1048.35 178.167C1054.81 181.367 1062.91 182.966 1072.64 182.966C1078.84 182.966 1084.55 182.118 1089.78 180.42C1095 178.657 1099.67 176.045 1103.78 172.584C1107.9 169.058 1111.36 164.683 1114.17 159.459L1135.32 165.728C1131.73 173.302 1126.67 179.963 1120.14 185.709C1113.68 191.39 1106.1 195.83 1097.42 199.03C1088.8 202.164 1079.36 203.731 1069.11 203.731Z" fill="#002042"/>
<path d="M798.188 200.597L776.64 0H801.322L816.21 163.377H818.169L887.908 0H915.333L931.005 163.377H932.964L1001.92 0H1026.6L938.449 200.597H913.375L895.744 40.7462H894.177L823.263 200.597H798.188Z" fill="#002042"/>
</svg>
