<svg width="30" height="30" viewBox="0 0 30 30" fill="none" xmlns="http://www.w3.org/2000/svg">
<path d="M15.2149 14.0127H7.69593C7.44277 14.0127 7.24023 14.2279 7.24023 14.481V15.4178C7.24023 15.6709 7.44277 15.8861 7.69593 15.8861H13.5187C13.987 15.1519 14.5187 14.481 15.2149 14.0127Z" fill="white"/>
<path d="M11.8731 19.6201H7.69593C7.44277 19.6201 7.24023 19.8353 7.24023 20.0885V21.0252C7.24023 21.2783 7.44277 21.4935 7.69593 21.4935H11.582C11.582 21.1391 11.582 20.7847 11.6579 20.4302C11.6579 20.4176 11.7972 19.7847 11.7592 20.1897C11.7719 19.9872 11.8225 19.7973 11.8731 19.6201Z" fill="white"/>
<path d="M17.2022 9.81033V8.87363C17.2022 8.62046 16.9997 8.40527 16.7465 8.40527H7.69593C7.44277 8.40527 7.24023 8.62046 7.24023 8.87363V9.81033C7.24023 10.0635 7.44277 10.2787 7.69593 10.2787H16.7465C16.9997 10.2787 17.2022 10.0762 17.2022 9.81033Z" fill="white"/>
<path d="M21.7598 14.1582C25.9645 14.1584 29.373 17.5677 29.373 21.7725C29.3729 25.977 25.9643 29.3855 21.7598 29.3857C17.555 29.3857 14.1457 25.9772 14.1455 21.7725C14.1455 17.5676 17.5549 14.1582 21.7598 14.1582Z" stroke="white"/>
<path d="M13.5949 28.0126H2.72151C2.22784 28.0126 1.81012 27.5948 1.81012 27.0759V20.5189V15.9113V2.81012C1.81012 2.29113 2.21518 1.87341 2.72151 1.87341H21.7341C22.2404 1.87341 22.6455 2.29113 22.6455 2.81012V11.5189C23.2657 11.5696 23.8733 11.6835 24.4556 11.8481V1.87341C24.4556 0.848099 23.6455 0 22.6455 0H1.81012C0.810124 0.0126582 0 0.848099 0 1.87341C0 1.87341 0 9.10124 0 15.9746C0 17.5442 0 19.0759 0 20.5189C0 24.7468 0 28.0126 0 28.0126C0 29.0379 0.810124 29.886 1.81012 29.886H15.443C14.7468 29.3417 14.1265 28.7214 13.5949 28.0126Z" fill="white"/>
</svg>
