<svg width="20" height="20" viewBox="0 0 20 20" fill="none" xmlns="http://www.w3.org/2000/svg">
<path d="M9.26768 0.226986C9.04041 0.403531 8.81313 0.907945 8.35859 2.3203C7.60101 4.61538 7.19697 5.39723 6.28788 6.27995C5.40404 7.16267 4.62121 7.5662 2.32323 8.34804C0.252526 9.029 0 9.20555 0 10.0126C0 10.7945 0.353535 11.0214 2.65152 11.7781C6.21212 12.9886 7.07071 13.8714 8.30808 17.5284C9.06566 19.773 9.21717 20 10.0758 20C10.8081 20 11.0606 19.6469 11.7172 17.6293C12.4495 15.4098 12.9293 14.5523 13.8131 13.6696C14.697 12.8121 15.4545 12.4338 17.6515 11.7024C19.6212 11.0719 20 10.7945 20 10.0126C20 9.23077 19.7475 9.029 17.6768 8.34804C15.3788 7.5662 14.6465 7.18789 13.7121 6.25473C12.8283 5.372 12.4242 4.53972 11.6162 2.14376C11.2121 0.882724 10.9848 0.403531 10.7576 0.226986C10.3535 -0.075662 9.67172 -0.075662 9.26768 0.226986Z" fill="#14AA3C"/>
</svg>
