<svg width="229" height="80" viewBox="0 0 229 80" fill="none" xmlns="http://www.w3.org/2000/svg">
<path d="M39.4059 2.83948H56.3418L53.1377 3.83948L45.7246 49.9336C44.9786 54.2996 43.399 58.0733 40.9856 61.2546C38.5722 64.414 35.5115 66.8603 31.8037 68.5935C28.0958 70.3048 23.9602 71.1605 19.3966 71.1605C15.2939 71.1605 11.6957 70.4365 8.60219 68.9884C5.5306 67.5404 3.25981 65.3464 1.78983 62.4064C0.341797 59.4665 -0.0202124 55.7586 0.703806 51.2829H14.7893C14.5699 53.1039 14.6796 54.6397 15.1184 55.8903C15.5791 57.1409 16.358 58.0953 17.455 58.7535C18.552 59.4117 19.9232 59.7407 21.5687 59.7407C23.3458 59.7407 24.9255 59.3568 26.3077 58.5889C27.69 57.821 28.8308 56.6911 29.7304 55.1992C30.6518 53.7073 31.2991 51.8862 31.6721 49.7361L39.4059 2.83948Z" fill="white"/>
<path d="M79.6072 2.83948C86.3866 2.83948 92.0143 4.22155 96.49 6.98596C100.988 9.7504 104.158 13.7109 106.001 18.8668C107.844 24.0007 108.173 30.1329 106.988 37.2633C105.847 44.1524 103.576 50.0651 100.176 55.0016C96.7749 59.916 92.4204 63.6901 87.1111 66.3229C81.8017 68.9337 75.7239 70.2389 68.8787 70.2389H46.448C48.4157 57.5936 59.919 44.989 76.531 38.2252L79.7986 48.3707L90.7556 27.0055L69.3865 16.0446L72.6169 26.0729C62.6016 30.1504 54.4435 36.3506 49.1121 43.403L55.8464 2.83948H79.6072Z" fill="white"/>
<path d="M123.022 34L119.74 3.45454H123.499L125.766 28.3324H126.064L136.684 3.45454H140.86L143.246 28.3324H143.544L154.044 3.45454H157.803L144.38 34H140.561L137.877 9.65909H137.638L126.84 34H123.022ZM163.436 34.4773C161.238 34.4773 159.424 33.9901 157.992 33.0156C156.56 32.0312 155.561 30.6591 154.994 28.8991C154.427 27.1293 154.338 25.071 154.726 22.7244C155.113 20.3778 155.884 18.3097 157.037 16.5199C158.191 14.7202 159.628 13.3182 161.348 12.3139C163.068 11.2997 164.957 10.7926 167.015 10.7926C168.209 10.7926 169.357 10.9915 170.461 11.3892C171.564 11.7869 172.519 12.4332 173.324 13.3281C174.13 14.2131 174.692 15.3864 175.01 16.848C175.328 18.3097 175.308 20.1094 174.95 22.2472L174.711 23.7386H157.052L157.53 20.696H171.609C171.838 19.4034 171.778 18.25 171.43 17.2358C171.092 16.2216 170.501 15.4212 169.655 14.8345C168.82 14.2479 167.761 13.9545 166.479 13.9545C165.156 13.9545 163.923 14.3125 162.78 15.0284C161.636 15.7344 160.682 16.6293 159.916 17.7131C159.15 18.7869 158.673 19.8807 158.484 20.9943L158.067 23.6193C157.768 25.5185 157.813 27.0298 158.201 28.1534C158.599 29.277 159.29 30.0874 160.274 30.5845C161.258 31.0717 162.491 31.3153 163.973 31.3153C164.917 31.3153 165.787 31.1861 166.583 30.9276C167.378 30.6591 168.089 30.2614 168.716 29.7344C169.342 29.1974 169.869 28.5312 170.297 27.7358L173.518 28.6903C172.971 29.8438 172.201 30.858 171.207 31.733C170.222 32.598 169.069 33.2741 167.746 33.7614C166.434 34.2386 164.997 34.4773 163.436 34.4773ZM178.055 34L183.126 3.45454H186.646L184.797 14.7301H185.095C185.413 14.3324 185.856 13.8253 186.422 13.2088C186.989 12.5824 187.75 12.0256 188.704 11.5384C189.659 11.0412 190.882 10.7926 192.373 10.7926C194.302 10.7926 195.918 11.2749 197.221 12.2393C198.533 13.2038 199.453 14.571 199.98 16.3409C200.517 18.1108 200.586 20.1989 200.189 22.6051C199.791 25.0312 199.03 27.1342 197.907 28.9141C196.793 30.6839 195.421 32.0561 193.79 33.0305C192.169 33.995 190.405 34.4773 188.495 34.4773C187.024 34.4773 185.885 34.2337 185.08 33.7464C184.284 33.2493 183.698 32.6875 183.32 32.0611C182.952 31.4247 182.669 30.8977 182.47 30.4801H182.052L181.456 34H178.055ZM183.424 22.5455C183.146 24.2756 183.151 25.8018 183.439 27.1243C183.728 28.4368 184.299 29.4659 185.155 30.2116C186.01 30.9474 187.143 31.3153 188.555 31.3153C190.027 31.3153 191.319 30.9276 192.433 30.152C193.547 29.3665 194.461 28.3125 195.177 26.9901C195.893 25.6577 196.39 24.1761 196.669 22.5455C196.927 20.9347 196.917 19.483 196.639 18.1903C196.37 16.8878 195.804 15.8587 194.939 15.103C194.083 14.3374 192.91 13.9545 191.419 13.9545C189.987 13.9545 188.719 14.3175 187.615 15.0433C186.522 15.7592 185.617 16.7635 184.901 18.0561C184.195 19.3388 183.703 20.8352 183.424 22.5455ZM211.415 34.4176C209.406 34.4176 207.736 34.0497 206.403 33.3139C205.071 32.5781 204.121 31.5689 203.555 30.2862C202.988 29.0036 202.844 27.5369 203.122 25.8864C203.321 24.6136 203.773 23.4851 204.479 22.5007C205.185 21.5064 206.09 20.5866 207.194 19.7415C208.297 18.8864 209.545 18.0312 210.937 17.1761L215.889 13.8949C216.844 13.3281 217.634 12.7216 218.261 12.0753C218.887 11.429 219.29 10.5838 219.469 9.53977C219.588 8.7642 219.364 8.01349 218.797 7.28764C218.241 6.56179 217.41 6.19886 216.307 6.19886C215.531 6.19886 214.815 6.39773 214.159 6.79545C213.503 7.18324 212.956 7.6804 212.518 8.28693C212.091 8.88352 211.822 9.5 211.713 10.1364C211.594 10.8523 211.673 11.5732 211.952 12.299C212.23 13.0249 212.618 13.7706 213.115 14.5362C213.612 15.2919 214.119 16.0724 214.636 16.8778L225.793 34H221.557L212.31 20.0398C211.454 18.7472 210.679 17.5739 209.983 16.5199C209.297 15.4659 208.78 14.4268 208.432 13.4027C208.084 12.3786 208.004 11.2699 208.193 10.0767C208.412 8.70454 208.909 7.50142 209.685 6.46733C210.47 5.42329 211.464 4.61292 212.668 4.03622C213.881 3.44957 215.233 3.15625 216.724 3.15625C218.256 3.15625 219.523 3.45455 220.528 4.05114C221.542 4.63778 222.263 5.41832 222.69 6.39275C223.128 7.35724 223.247 8.40625 223.048 9.53977C222.81 11.0014 222.233 12.2692 221.318 13.343C220.403 14.407 219.25 15.4062 217.858 16.3409L211.057 20.875C209.516 21.8991 208.417 22.8885 207.761 23.843C207.114 24.7876 206.761 25.4687 206.702 25.8864C206.543 26.8409 206.642 27.7308 207 28.5561C207.368 29.3814 207.959 30.0476 208.775 30.5547C209.6 31.0618 210.619 31.3153 211.832 31.3153C212.986 31.3153 214.149 31.0717 215.322 30.5845C216.496 30.0874 217.599 29.3714 218.633 28.4368C219.677 27.5021 220.567 26.3786 221.303 25.0661C222.039 23.7536 222.541 22.277 222.81 20.6364H226.21C225.872 22.6648 225.375 24.3153 224.719 25.5881C224.072 26.8509 223.406 27.8452 222.72 28.571C222.044 29.2869 221.497 29.8437 221.079 30.2415C220.93 30.3906 220.771 30.5398 220.602 30.6889C220.433 30.8381 220.274 30.9872 220.125 31.1364C218.962 32.2401 217.584 33.0653 215.993 33.6122C214.403 34.1491 212.876 34.4176 211.415 34.4176ZM136.579 49.3288C136.629 48.0859 136.266 47.1264 135.49 46.4503C134.725 45.7741 133.566 45.4361 132.015 45.4361C130.961 45.4361 130.047 45.5852 129.271 45.8835C128.495 46.1719 127.874 46.5746 127.407 47.0916C126.949 47.5987 126.666 48.1854 126.556 48.8516C126.447 49.3984 126.482 49.8757 126.661 50.2834C126.85 50.6911 127.143 51.044 127.541 51.3423C127.949 51.6307 128.431 51.8842 128.988 52.103C129.544 52.3118 130.136 52.4908 130.762 52.6399L133.387 53.2962C134.67 53.5945 135.824 53.9922 136.848 54.4893C137.882 54.9865 138.747 55.598 139.443 56.3239C140.149 57.0497 140.646 57.9048 140.934 58.8892C141.223 59.8736 141.262 61.0021 141.054 62.2749C140.735 64.1442 139.995 65.7649 138.831 67.1371C137.668 68.4993 136.142 69.5582 134.252 70.3139C132.363 71.0597 130.176 71.4325 127.69 71.4325C125.224 71.4325 123.141 71.0547 121.441 70.299C119.74 69.5433 118.502 68.4247 117.727 66.9432C116.961 65.4517 116.733 63.6072 117.041 61.4098H123.29C123.181 62.4339 123.33 63.2891 123.738 63.9751C124.155 64.6513 124.777 65.1634 125.602 65.5114C126.427 65.8494 127.397 66.0185 128.51 66.0185C129.614 66.0185 130.593 65.8594 131.449 65.5412C132.314 65.223 133.015 64.7805 133.551 64.2138C134.088 63.647 134.417 62.9957 134.536 62.2599C134.655 61.5739 134.551 60.9972 134.223 60.5298C133.895 60.0625 133.368 59.6648 132.642 59.3366C131.926 58.9986 131.036 58.7003 129.972 58.4418L126.78 57.6065C124.314 56.9801 122.45 56.0007 121.187 54.6683C119.924 53.3359 119.472 51.5412 119.83 49.2841C120.148 47.4347 120.919 45.8189 122.142 44.4368C123.375 43.0447 124.926 41.9659 126.795 41.2003C128.674 40.4247 130.728 40.0369 132.955 40.0369C135.222 40.0369 137.136 40.4297 138.697 41.2152C140.258 41.9908 141.397 43.0746 142.113 44.4666C142.828 45.8587 143.047 47.4794 142.769 49.3288H136.579ZM151.582 57.7557L149.375 71H143.036L148.107 40.4545H154.267L152.358 52.1328H152.612C153.347 50.7805 154.357 49.7216 155.639 48.956C156.922 48.1804 158.438 47.7926 160.188 47.7926C161.779 47.7926 163.107 48.1406 164.17 48.8366C165.244 49.5227 166.005 50.5121 166.452 51.8047C166.9 53.0874 166.974 54.6236 166.676 56.4134L164.23 71H157.891L160.129 57.5469C160.357 56.1349 160.173 55.0362 159.577 54.2507C158.99 53.4652 158.055 53.0724 156.773 53.0724C155.908 53.0724 155.112 53.2564 154.386 53.6243C153.661 53.9922 153.049 54.5291 152.552 55.2351C152.065 55.9311 151.741 56.7713 151.582 57.7557ZM168.36 71L172.179 48.0909H178.532L174.714 71H168.36ZM176.012 45.108C175.067 45.108 174.287 44.7947 173.67 44.1683C173.064 43.532 172.815 42.7763 172.924 41.9013C173.034 41.0064 173.461 40.2507 174.207 39.6342C174.953 39.0078 175.798 38.6946 176.743 38.6946C177.687 38.6946 178.458 39.0078 179.054 39.6342C179.651 40.2507 179.9 41.0064 179.8 41.9013C179.701 42.7763 179.278 43.532 178.532 44.1683C177.797 44.7947 176.956 45.108 176.012 45.108ZM177.577 79.5909L182.857 48.0909H189.121L188.479 51.9389H188.763C189.141 51.3224 189.643 50.696 190.269 50.0597C190.906 49.4134 191.696 48.8764 192.641 48.4489C193.585 48.0114 194.694 47.7926 195.967 47.7926C197.647 47.7926 199.114 48.2301 200.367 49.1051C201.619 49.9702 202.524 51.2777 203.081 53.0277C203.648 54.7678 203.712 56.9503 203.275 59.5753C202.857 62.1307 202.087 64.2884 200.963 66.0483C199.849 67.7983 198.512 69.1257 196.951 70.0305C195.4 70.9254 193.754 71.3729 192.014 71.3729C190.781 71.3729 189.767 71.169 188.972 70.7614C188.186 70.3537 187.575 69.8416 187.137 69.2251C186.7 68.5987 186.391 67.9673 186.212 67.331H185.974L183.945 79.5909H177.577ZM187.167 59.5455C186.948 60.9077 186.938 62.0959 187.137 63.1101C187.346 64.1243 187.764 64.9148 188.39 65.4815C189.016 66.0384 189.842 66.3168 190.866 66.3168C191.9 66.3168 192.82 66.0334 193.625 65.4666C194.43 64.8899 195.102 64.0945 195.639 63.0803C196.175 62.0561 196.558 60.8778 196.787 59.5455C196.996 58.223 197.001 57.0597 196.802 56.0554C196.603 55.0511 196.195 54.2656 195.579 53.6989C194.962 53.1321 194.127 52.8487 193.073 52.8487C192.049 52.8487 191.129 53.1222 190.314 53.669C189.509 54.2159 188.837 54.9915 188.3 55.9957C187.764 57 187.386 58.1832 187.167 59.5455Z" fill="white"/>
</svg>
