<svg width="189" height="64" viewBox="0 0 189 64" fill="none" xmlns="http://www.w3.org/2000/svg">
<path d="M32.1146 2.67188H45.6633L43.1 3.47188L37.1695 40.3472C36.5728 43.84 35.309 46.8589 33.3783 49.404C31.4476 51.9315 28.9991 53.8885 26.0328 55.2751C23.0665 56.6442 19.758 57.3287 16.1072 57.3287C12.8249 57.3287 9.94642 56.7495 7.4716 55.5911C5.01432 54.4326 3.19769 52.6774 2.02171 50.3255C0.863281 47.9735 0.573674 45.0072 1.15289 41.4266H12.4212C12.2457 42.8834 12.3335 44.1121 12.6845 45.1125C13.0531 46.113 13.6762 46.8765 14.5538 47.4031C15.4314 47.9296 16.5284 48.1929 17.8448 48.1929C19.2665 48.1929 20.5303 47.8857 21.636 47.2714C22.7418 46.6571 23.6545 45.7532 24.3741 44.5596C25.1113 43.3661 25.6291 41.9093 25.9275 40.1892L32.1146 2.67188Z" fill="#002042"/>
<path d="M64.2754 2.67188C69.6989 2.67188 74.2016 3.77771 77.7822 5.98926C81.3801 8.20072 83.9163 11.3687 85.3906 15.4932C86.865 19.6003 87.1285 24.5066 86.1807 30.2109C85.268 35.7222 83.451 40.4522 80.7305 44.4014C78.0099 48.333 74.5259 51.3527 70.2783 53.459C66.0308 55.5476 61.1685 56.5918 55.6924 56.5918H37.748C39.322 46.4755 48.5239 36.3916 61.8135 30.9805L64.4277 39.0967L73.1934 22.0039L56.0986 13.2363L58.6826 21.2578C50.6708 24.5196 44.1441 29.4796 39.8789 35.1211L45.2666 2.67188H64.2754Z" fill="#002042"/>
<path d="M99.0077 27L96.3827 2.56363H99.3895L101.203 22.4659H101.442L109.937 2.56363H113.278L115.187 22.4659H115.426L123.826 2.56363H126.833L116.094 27H113.039L110.892 7.52727H110.701L102.062 27H99.0077ZM132.011 27.3818C130.253 27.3818 128.801 26.992 127.656 26.2125C126.511 25.425 125.711 24.3273 125.258 22.9193C124.804 21.5034 124.733 19.8568 125.043 17.9795C125.353 16.1023 125.97 14.4477 126.892 13.0159C127.815 11.5761 128.964 10.4545 130.341 9.65113C131.717 8.83977 133.228 8.43409 134.875 8.43409C135.829 8.43409 136.748 8.59318 137.631 8.91136C138.514 9.22954 139.278 9.74659 139.922 10.4625C140.566 11.1705 141.016 12.1091 141.27 13.2784C141.525 14.4477 141.509 15.8875 141.222 17.5977L141.032 18.7909H126.904L127.286 16.3568H138.55C138.733 15.3227 138.685 14.4 138.407 13.5886C138.136 12.7773 137.663 12.1369 136.987 11.6676C136.318 11.1983 135.471 10.9636 134.445 10.9636C133.387 10.9636 132.401 11.25 131.486 11.8227C130.571 12.3875 129.808 13.1034 129.195 13.9705C128.583 14.8295 128.201 15.7045 128.05 16.5955L127.716 18.6955C127.477 20.2148 127.513 21.4239 127.823 22.3227C128.141 23.2216 128.694 23.8699 129.482 24.2676C130.269 24.6574 131.255 24.8523 132.441 24.8523C133.196 24.8523 133.892 24.7489 134.529 24.542C135.165 24.3273 135.734 24.0091 136.235 23.5875C136.736 23.158 137.158 22.625 137.5 21.9886L140.077 22.7523C139.639 23.675 139.023 24.4864 138.228 25.1864C137.44 25.8784 136.517 26.4193 135.459 26.8091C134.409 27.1909 133.26 27.3818 132.011 27.3818ZM144.378 27L148.435 2.56363H151.251L149.772 11.5841H150.01C150.265 11.2659 150.619 10.8602 151.072 10.367C151.526 9.86591 152.134 9.42045 152.898 9.03068C153.661 8.63295 154.64 8.43409 155.833 8.43409C157.376 8.43409 158.669 8.81989 159.711 9.59148C160.761 10.3631 161.497 11.4568 161.918 12.8727C162.348 14.2886 162.403 15.9591 162.085 17.8841C161.767 19.825 161.159 21.5074 160.26 22.9312C159.369 24.3472 158.271 25.4449 156.966 26.2244C155.67 26.996 154.258 27.3818 152.731 27.3818C151.553 27.3818 150.643 27.1869 149.998 26.7972C149.362 26.3994 148.893 25.95 148.59 25.4489C148.296 24.9398 148.069 24.5182 147.91 24.1841H147.576L147.099 27H144.378ZM148.674 17.8364C148.451 19.2205 148.455 20.4415 148.686 21.4994C148.916 22.5494 149.374 23.3727 150.058 23.9693C150.742 24.558 151.649 24.8523 152.778 24.8523C153.956 24.8523 154.99 24.542 155.881 23.9216C156.772 23.2932 157.503 22.45 158.076 21.392C158.649 20.3261 159.047 19.1409 159.269 17.8364C159.476 16.5477 159.468 15.3864 159.245 14.3523C159.031 13.3102 158.577 12.4869 157.885 11.8824C157.201 11.2699 156.262 10.9636 155.069 10.9636C153.924 10.9636 152.91 11.254 152.027 11.8347C151.152 12.4074 150.428 13.2108 149.855 14.2449C149.29 15.271 148.897 16.4682 148.674 17.8364ZM177.207 27.496C176.48 27.5621 175.785 27.3803 175.124 26.9504C174.463 26.4875 174.132 25.9749 174.132 25.4128C174.132 24.3877 175.108 22.4203 177.059 19.5104C179.208 16.3029 180.283 14.4512 180.283 13.9552C180.283 13.6576 180.134 13.4923 179.836 13.4592C178.877 13.5253 177.389 14.4843 175.372 16.336C172.495 19.0144 169.8 22.6517 167.287 27.248C167.221 27.3141 167.039 27.3472 166.742 27.3472C165.32 27.3472 164.675 27.1488 164.807 26.752C165.171 25.7931 165.799 24.3547 166.692 22.4368C167.618 20.5189 168.808 18.1051 170.263 15.1952C171.255 13.2443 172.264 12.2688 173.289 12.2688C173.62 12.2688 173.835 12.3515 173.934 12.5168C174 12.616 173.305 14.0379 171.851 16.7824C171.156 18.1051 170.611 19.1632 170.214 19.9568C169.817 20.7173 169.536 21.2133 169.371 21.4448C169.933 20.8827 170.594 20.1883 171.355 19.3616C172.148 18.5349 173.057 17.576 174.083 16.4848C175.703 14.6661 177.488 13.3104 179.439 12.4176C179.902 12.2192 180.431 12.12 181.027 12.12C182.382 12.12 183.06 12.616 183.06 13.608C183.06 14.2363 182.746 14.9803 182.118 15.84C178.547 20.8331 176.761 24.1893 176.761 25.9088C176.761 26.2725 176.877 26.504 177.108 26.6032C177.637 26.8347 178.943 26.2891 181.027 24.9664C183.473 23.3792 185.557 21.4117 187.276 19.064C187.64 18.568 187.971 18.32 188.268 18.32C188.367 18.32 188.417 18.3531 188.417 18.4192C188.417 18.5845 188.268 18.8987 187.971 19.3616C186.516 21.6432 184.499 23.6603 181.919 25.4128C179.605 26.9339 178.034 27.6283 177.207 27.496ZM109.854 39.6631C109.893 38.6687 109.603 37.9011 108.983 37.3602C108.37 36.8193 107.443 36.5489 106.203 36.5489C105.359 36.5489 104.628 36.6682 104.007 36.9068C103.387 37.1375 102.889 37.4597 102.516 37.8733C102.15 38.279 101.923 38.7483 101.836 39.2812C101.748 39.7187 101.776 40.1006 101.919 40.4267C102.07 40.7528 102.305 41.0352 102.623 41.2739C102.949 41.5045 103.335 41.7074 103.78 41.8824C104.226 42.0494 104.699 42.1926 105.2 42.3119L107.3 42.8369C108.326 43.0756 109.249 43.3937 110.068 43.7915C110.896 44.1892 111.588 44.6784 112.145 45.2591C112.709 45.8398 113.107 46.5239 113.338 47.3114C113.568 48.0989 113.6 49.0017 113.433 50.0199C113.179 51.5153 112.586 52.8119 111.655 53.9097C110.725 54.9994 109.504 55.8466 107.992 56.4511C106.481 57.0477 104.731 57.346 102.742 57.346C100.77 57.346 99.1031 57.0438 97.7429 56.4392C96.3827 55.8347 95.3923 54.9398 94.7719 53.7545C94.1594 52.5614 93.9764 51.0858 94.223 49.3278H99.2224C99.1349 50.1472 99.2543 50.8312 99.5804 51.3801C99.9145 51.921 100.412 52.3307 101.072 52.6091C101.732 52.8795 102.508 53.0148 103.399 53.0148C104.282 53.0148 105.065 52.8875 105.749 52.633C106.441 52.3784 107.002 52.0244 107.432 51.571C107.861 51.1176 108.124 50.5966 108.219 50.008C108.314 49.4591 108.231 48.9977 107.968 48.6239C107.706 48.25 107.284 47.9318 106.704 47.6693C106.131 47.3989 105.419 47.1602 104.568 46.9534L102.014 46.2852C100.042 45.7841 98.5503 45.0006 97.54 43.9347C96.5298 42.8687 96.1679 41.433 96.4543 39.6273C96.7088 38.1477 97.3253 36.8551 98.3037 35.7494C99.29 34.6358 100.531 33.7727 102.026 33.1602C103.53 32.5398 105.172 32.2295 106.954 32.2295C108.768 32.2295 110.299 32.5437 111.548 33.1722C112.797 33.7926 113.708 34.6597 114.28 35.7733C114.853 36.8869 115.028 38.1835 114.805 39.6631H109.854ZM122.528 46.4045L120.762 57H115.691L119.748 32.5636H124.676L123.149 41.9062H123.352C123.94 40.8244 124.748 39.9773 125.774 39.3648C126.8 38.7443 128.013 38.4341 129.413 38.4341C130.686 38.4341 131.748 38.7125 132.599 39.2693C133.458 39.8182 134.066 40.6097 134.424 41.6437C134.782 42.6699 134.842 43.8989 134.603 45.3307L132.646 57H127.575L129.365 46.2375C129.548 45.108 129.401 44.229 128.924 43.6006C128.454 42.9722 127.707 42.658 126.681 42.658C125.988 42.658 125.352 42.8051 124.771 43.0994C124.191 43.3937 123.702 43.8233 123.304 44.3881C122.914 44.9449 122.656 45.617 122.528 46.4045ZM136.623 57L139.677 38.6727H144.76L141.706 57H136.623ZM142.744 36.2864C141.988 36.2864 141.364 36.0358 140.87 35.5347C140.385 35.0256 140.186 34.421 140.274 33.721C140.361 33.0051 140.703 32.4006 141.3 31.9074C141.897 31.4062 142.573 31.1557 143.328 31.1557C144.084 31.1557 144.701 31.4062 145.178 31.9074C145.655 32.4006 145.854 33.0051 145.774 33.721C145.695 34.421 145.357 35.0256 144.76 35.5347C144.172 36.0358 143.499 36.2864 142.744 36.2864ZM144.668 63.8727L148.892 38.6727H153.903L153.39 41.7511H153.617C153.919 41.258 154.321 40.7568 154.822 40.2477C155.331 39.7307 155.963 39.3011 156.719 38.9591C157.475 38.6091 158.362 38.4341 159.38 38.4341C160.724 38.4341 161.897 38.7841 162.9 39.4841C163.902 40.1761 164.626 41.2222 165.071 42.6222C165.525 44.0142 165.576 45.7602 165.226 47.8602C164.892 49.9045 164.276 51.6307 163.377 53.0386C162.486 54.4386 161.416 55.5006 160.167 56.2244C158.926 56.9403 157.61 57.2983 156.218 57.2983C155.231 57.2983 154.42 57.1352 153.784 56.8091C153.155 56.483 152.666 56.0733 152.316 55.5801C151.966 55.079 151.719 54.5739 151.576 54.0648H151.385L149.763 63.8727H144.668ZM152.34 47.8364C152.165 48.9261 152.157 49.8767 152.316 50.6881C152.483 51.4994 152.817 52.1318 153.318 52.5852C153.819 53.0307 154.48 53.2534 155.299 53.2534C156.126 53.2534 156.862 53.0267 157.506 52.5733C158.151 52.1119 158.688 51.4756 159.117 50.6642C159.547 49.8449 159.853 48.9023 160.036 47.8364C160.203 46.7784 160.207 45.8477 160.048 45.0443C159.889 44.2409 159.563 43.6125 159.069 43.1591C158.576 42.7057 157.908 42.479 157.065 42.479C156.246 42.479 155.51 42.6977 154.858 43.1352C154.213 43.5727 153.676 44.1932 153.247 44.9966C152.817 45.8 152.515 46.7466 152.34 47.8364Z" fill="#002042"/>
</svg>
